# xmcd CD database file
#
# Track frame offsets:
#	150
#	12537
#	25917
#	37131
#	50061
#	65005
#	79996
#	94658
#	109226
#	124708
#	138855
#	154793
#	168611
#	182252
#	195902
#	209434
#	223837
#	238294
#	250592
#	262958
#	278781
#	293923
#	308765
#	320068
#	334409
#
# Disc length: 4647 seconds
#
# Revision: 0
# Processed by: cddbd v1.5.2PL0 Copyright (c) Steve Scherf et al.
# Submitted via: CDex 1.70beta2
#
DISCID=7c122519
DTITLE=Jelly Roll Morton - Classic Jazz 010 - Jelly Roll Morton 1928-29
DYEAR=2009
DGENRE=Jazz
TTITLE0=Midnight Mama (Morton)
TTITLE1=Mr. Jelly Lord (Mortton)
TTITLE2=Georgia Swing (Morton-Pecora)
TTITLE3=Kansas City Stomps (Morton)
TTITLE4=Shoe Shiner's Drag (Morton)
TTITLE5=Boogaboo (Morton)
TTITLE6=Shreveport (Morton)
TTITLE7=Shreveport (Morton)
TTITLE8=Mournful Serenade (Oliver)
TTITLE9=Red Hot Pepper (Morton)
TTITLE10=Deep Creek (Morton)
TTITLE11=Burnin' The Iceberg (Morton)
TTITLE12=Burnin' The Iceberg (Morton)
TTITLE13=Courthouse Bump (Morton)
TTITLE14=Courthouse Bump (Morton)
TTITLE15=Pretty Lil (Morton)
TTITLE16=Pretty Lil (Morton)
TTITLE17=Sweet Aneta Mine (Morton)
TTITLE18=Sweet Aneta Mine (Morton)
TTITLE19=New Orleans Bump (Morton)
TTITLE20=New Orleans Bump (Morton)
TTITLE21=Down My Way (Morton)
TTITLE22=Try Me Out (Morton)
TTITLE23=Tank Town Bump (Morton)
TTITLE24=Tank Town Bump (Morton)
EXTD=YEAR: 2009
EXTT0=
EXTT1=
EXTT2=
EXTT3=
EXTT4=
EXTT5=
EXTT6=
EXTT7=
EXTT8=
EXTT9=
EXTT10=
EXTT11=
EXTT12=
EXTT13=
EXTT14=
EXTT15=
EXTT16=
EXTT17=
EXTT18=
EXTT19=
EXTT20=
EXTT21=
EXTT22=
EXTT23=
EXTT24=
PLAYORDER=
